<?xml version="1.0" encoding="UTF-8" standalone="no"?>
<svg
   version="1.2"
   viewBox="0 0 500 500"
   width="500"
   height="500"
   id="svg2"
   sodipodi:docname="favicon.svg"
   inkscape:version="1.3.2 (091e20ef0f, 2023-11-25, custom)"
   xmlns:inkscape="http://www.inkscape.org/namespaces/inkscape"
   xmlns:sodipodi="http://sodipodi.sourceforge.net/DTD/sodipodi-0.dtd"
   xmlns="http://www.w3.org/2000/svg"
   xmlns:svg="http://www.w3.org/2000/svg">
  <defs
     id="defs2" />
  <sodipodi:namedview
     id="namedview2"
     pagecolor="#ffffff"
     bordercolor="#000000"
     borderopacity="0.25"
     inkscape:showpageshadow="2"
     inkscape:pageopacity="0.0"
     inkscape:pagecheckerboard="0"
     inkscape:deskcolor="#d1d1d1"
     inkscape:zoom="1.608"
     inkscape:cx="250"
     inkscape:cy="100.74627"
     inkscape:window-width="1920"
     inkscape:window-height="1008"
     inkscape:window-x="0"
     inkscape:window-y="0"
     inkscape:window-maximized="1"
     inkscape:current-layer="svg2" />
  <style
     id="style1" />
  <path
     fill-rule="evenodd"
     d="m248.3 8c6.5-0.1 17.3 0.4 23.9 1 6.6 0.7 17.6 2.3 24.5 3.7 6.9 1.4 18 4.2 24.5 6.1 6.6 2 15.2 4.9 19.2 6.6 3.9 1.6 13.6 6.2 21.5 10.2 7.9 4 18.1 9.8 22.8 12.9 4.6 3.1 13.2 9.4 19.1 14.1 5.9 4.6 15.6 13.1 21.5 19 5.8 5.8 14.7 15.7 19.7 21.9 5 6.3 12 16 15.6 21.6 3.6 5.6 9 15 12.1 20.9 3.1 5.9 8.2 17.2 11.3 25.1 3.1 7.9 7.1 20.3 9 27.6 1.8 7.2 4.3 19.3 5.4 26.9 1.6 10.9 1.9 19 1.4 39.5-0.5 21.5-1.1 28.1-3.7 40.3-1.8 8.1-5.1 20.5-7.4 27.7-2.4 7-6.8 18.5-9.8 25.4-3 6.9-8.8 18.2-12.9 25.1-4.1 6.9-11.1 17.4-15.4 23.4-4.4 5.9-13.7 16.8-20.8 24.3-7.1 7.5-17.7 17.5-23.6 22.2-5.9 4.8-15.1 11.6-20.3 15.1-5.3 3.5-13.4 8.2-18 10.4-6.8 3.3-9.3 4-13.2 3.4-2.6-0.4-6.5-1.8-8.6-3.1-2.4-1.5-4.9-4.5-6.5-8-1.9-4.3-2.3-6.9-1.7-10.5 0.5-2.6 1.7-6.1 2.6-7.8 1-1.6 3.3-3.9 5-5.1 1.8-1.1 8.9-5.5 15.8-9.6 6.9-4.1 18.2-12.1 25.2-17.8 6.9-5.7 16.3-14.6 20.9-19.6 4.6-5.1 10.4-12 12.9-15.4 2.6-3.3 7.5-10.8 11.1-16.5 3.6-5.8 8.9-15.8 11.8-22.2 2.9-6.4 6.6-15.9 8.3-21.3 1.7-5.3 3.9-13.1 5-17.4 1.1-4.2 2.7-14.5 3.6-22.7 0.9-8.2 1.7-20.3 1.7-26.9 0-6.6-0.8-19-1.8-27.5-1-8.6-2.8-19.9-4.1-25.2-1.2-5.2-4.4-15.2-6.9-22.1-2.6-6.9-7.8-18.5-11.5-25.7-3.7-7.3-10-17.8-13.9-23.4-4-5.5-11.2-14.4-16-19.7-4.8-5.3-13.6-13.7-19.4-18.7-5.9-5-15-11.9-20.3-15.3-5.3-3.5-16-9.5-23.9-13.3-8.5-4.2-20.5-8.8-29.3-11.4-8.3-2.3-21.2-5.4-28.8-6.7-10.7-2-18.6-2.5-36-2.5-17.2 0-25.1 0.5-35.8 2.5-7.6 1.3-20.5 4.4-28.8 6.7-8.8 2.6-20.8 7.2-29.3 11.4-7.9 3.8-18.6 9.8-23.9 13.3-5.3 3.4-14.2 10.1-19.8 14.8-5.5 4.8-14.3 13.2-19.4 18.7-5.2 5.5-13.1 15.5-17.5 22-4.5 6.6-10.6 16.9-13.6 22.8-2.9 5.9-7.4 15.9-9.8 22.1-2.5 6.3-5.8 16.2-7.3 22.1-1.5 6-3.6 18.1-4.6 27-1.1 8.8-1.9 21.5-1.9 28.1 0 6.6 0.8 18.7 1.7 26.9 0.9 8.2 2.5 18.5 3.6 22.7 1.1 4.3 3.3 12.1 5 17.4 1.7 5.4 5.4 14.9 8.3 21.3 2.9 6.4 8 16.1 11.4 21.6 3.3 5.4 8.9 13.6 12.5 18.2 3.5 4.6 10.6 12.8 15.7 18.1 5.2 5.4 14.5 13.8 20.7 18.7 6.3 4.9 14.4 10.8 18 13.1 3.6 2.3 9.3 5.5 12.5 7.2 3.3 1.7 7.8 5 9.9 7.4 2.5 2.8 4.2 6.1 4.7 9.4 0.6 4 0.1 6.4-2.1 11.1-2.3 4.6-4.1 6.5-8.3 8.6-2.9 1.5-6.7 2.7-8.3 2.7-1.7 0-6.8-1.7-11.4-3.9-4.6-2.2-12.7-6.9-18-10.4-5.2-3.5-14.4-10.3-20.3-15.1-5.9-4.7-16.5-14.7-23.6-22.2-7.1-7.5-16.4-18.4-20.8-24.3-4.3-6-11.3-16.5-15.4-23.4-4.1-6.9-9.9-18.2-12.9-25.1-3-6.9-7.4-18.4-9.8-25.4-2.3-7.2-5.6-19.6-7.4-27.7-2.6-12.2-3.2-18.8-3.7-40.3-0.5-20.5-0.2-28.6 1.4-39.5 1.1-7.6 3.6-19.7 5.5-26.9 1.8-7.3 5.8-19.7 8.9-27.6 3.1-7.9 8.1-19.2 11.2-25.1 3.1-5.9 8.6-15.3 12.2-20.9 3.6-5.6 10.7-15.4 15.8-21.9 5.1-6.4 14.3-16.5 20.4-22.5 6-5.9 16.1-14.7 22.4-19.5 6.2-4.9 15.4-11.4 20.3-14.6 5-3.1 17.1-9.7 27-14.4 9.9-4.9 24-10.6 31.7-12.9 7.5-2.2 19.4-5.2 26.3-6.6 6.9-1.4 17.1-3 22.7-3.6 5.6-0.5 15.6-1 22.3-1.1zm-0.7 76.5c2.3-0.1 9.9 0.4 16.8 1.1 6.9 0.7 18 2.7 24.5 4.3 6.6 1.7 17.4 5.2 24 7.8 6.5 2.6 14.4 6.2 17.3 7.9 3 1.7 10.2 6.4 16.2 10.3 6.2 4.2 16.3 12.8 24 20.5 7.3 7.2 16.5 17.5 20.3 22.8 3.9 5.2 10.1 15.5 13.8 22.7 3.6 7.2 8.3 18.3 10.4 24.5 2.1 6.3 4.7 16.5 5.8 22.8 1.4 7.4 2.1 17.5 2.1 29.3 0 12.1-0.7 21.8-2.2 29.9-1.1 6.6-3.6 16.5-5.4 22.1-1.9 5.6-5.9 15.6-9 22.3-3.2 6.5-7.7 15-10.1 18.8-2.3 3.8-4.7 6.8-5.3 6.6-0.6-0.2-3.4-6.8-6.4-14.7-2.9-7.9-6.6-17.7-11-28.8l2.5-6.6c1.3-3.6 3.5-10.6 4.7-15.5 1.2-5 2.8-14.6 3.4-21.6 0.8-8.3 0.8-16.8 0.1-25.1-0.7-6.9-2.6-17.9-4.2-24.5-1.7-6.6-5.2-16.6-7.9-22.1-2.7-5.6-7.4-14-10.3-18.6-3-4.6-10.4-13.2-16.4-19.2-6-5.9-14.9-13.3-19.9-16.4-4.9-3.1-13.3-7.4-18.5-9.7-5.3-2.3-15-5.7-21.6-7.5-11.2-3.2-13.3-3.4-35.4-3.3-21.1 0-24.3 0.3-34.7 3.1-6.2 1.7-15.9 5-21.5 7.4-5.6 2.4-14.2 6.9-19.1 10-5 3.1-13.9 10.5-19.9 16.4-6 6-13.4 14.6-16.3 19.2-3 4.6-7.3 12.2-9.6 16.8-2.3 4.6-5.3 11.8-6.7 16.1-1.3 4.3-3.4 12.6-4.5 18.6-1.1 6.3-2 16.9-2 25.7 0 8.2 0.6 19 1.5 23.9 0.8 5 3.1 14.1 5.1 20.4 2.2 7.2 3.2 12.4 2.7 14.3-0.4 1.7-3.4 10.3-6.7 19.3-3.3 8.8-6.6 17.6-7.4 19.4-0.8 1.9-1.7 3.4-2 3.3-0.4 0-2.6-3.1-4.9-6.9-2.4-3.8-6.8-12-9.8-18.2-3-6.4-7-16.3-9-22.3-2-5.9-4.6-16.1-5.7-22.7-1.4-7.6-2.2-18.3-2.3-29.3 0-12.1 0.6-21.2 2.2-29.9 1.2-6.9 4.1-18 6.4-24.6 2.2-6.5 7.1-17.6 10.7-24.5 3.7-6.9 9.6-16.6 13.3-21.5 3.6-5 12.5-15 19.9-22.2 7.6-7.7 17.8-16.3 24-20.5 6-3.9 13.2-8.6 16.2-10.3 2.9-1.7 10.8-5.3 17.3-7.9 6.6-2.6 17.5-6.1 24.3-7.8 6.7-1.7 16.7-3.6 22.1-4.2 5.4-0.5 11.8-1.1 14.1-1.2z"
     id="path1" />
  <path
     d="m249.6 183l114.5 217.2-114-33.6-115.1 33.6z"
     id="path2" />
  <g
     id="g18"
     transform="matrix(1.5791947,0,0,1.5167661,-548.99157,-607.20515)">
    <path
       style="fill:#ea0304"
       d="m 466.82573,726.63379 c -0.33837,-0.88176 -0.0251,-9.53122 0.69616,-19.22102 0.72125,-9.6898 1.57972,-21.596 1.90771,-26.45824 0.51895,-7.69305 0.90274,-9.08826 2.95713,-10.75 1.29843,-1.05026 3.18437,-1.90957 4.19098,-1.90957 2.44119,0 3.40162,-1.74878 1.93257,-3.51888 -1.38369,-1.66724 0.60226,-2.71749 8.01567,-4.23899 4.61818,-0.94783 4.39153,-1.22046 -2.5,-3.00718 -9.32848,-2.41853 -14.48033,-4.733 -14.49017,-6.5097 -0.005,-0.97612 -1.09633,-2.18784 -2.42427,-2.69272 -1.32793,-0.50488 -2.70095,-1.82072 -3.05115,-2.9241 -0.35019,-1.10337 -1.49418,-2.27828 -2.54219,-2.6109 -1.04801,-0.33263 -2.93749,-2.71815 -4.19885,-5.30115 -1.26136,-2.58301 -2.74337,-5.17947 -3.29337,-5.76991 -0.55,-0.59043 -1.7997,-2.72137 -2.77711,-4.7354 -5.47572,-11.28318 -5.22599,-10.38251 -3.67976,-13.27167 0.79163,-1.47918 2.47271,-3.36652 3.73573,-4.19408 2.09139,-1.37033 2.43058,-1.33596 3.79943,0.38501 1.1412,1.43477 1.37253,3.50017 0.96095,8.57977 -0.34545,4.26349 -0.15199,6.9312 0.53337,7.35477 1.53073,0.94605 5.67903,-3.2623 6.91885,-7.01901 1.08623,-3.29132 5.81643,-7.52586 8.40677,-7.52586 0.98711,0 1.70433,1.50117 2.15588,4.51229 0.37216,2.48177 1.05216,4.74437 1.5111,5.02801 0.89239,0.55153 3.16079,-2.99516 3.6065,-5.63883 0.6762,-4.01076 4.37929,-10.90147 5.85849,-10.90147 2.50796,0 5.4698,1.92161 5.4698,3.54875 0,0.81311 0.4038,2.25978 0.89734,3.21482 2.25607,4.36566 4.16703,10.22622 5.13119,15.73643 2.19291,12.53243 3.07997,16.94183 3.49094,17.3528 0.72581,0.72581 2.48053,-4.83354 2.48053,-7.85889 0,-1.58173 0.35898,-3.09774 0.79774,-3.36891 1.05661,-0.65303 2.79051,0.52702 3.35511,2.28341 0.24902,0.77462 1.49148,1.56693 2.76104,1.76067 2.06241,0.31475 2.23719,0.0582 1.64082,-2.4084 -0.3671,-1.51838 -1.82383,-4.99841 -3.23717,-7.73341 -2.22906,-4.31351 -2.62983,-6.56716 -3.0232,-17 -0.43878,-11.63752 -0.37126,-12.14069 2.08357,-15.52727 1.39538,-1.925 3.28545,-4.85 4.20016,-6.5 2.83868,-5.12057 4.35336,-6.25254 11.50271,-8.59637 6.65122,-2.18053 6.98272,-2.19905 8.25354,-0.46109 1.10843,1.51586 1.68596,1.61697 3.54701,0.62097 1.22265,-0.65435 2.0944,-1.94882 1.93722,-2.87662 -0.15718,-0.92779 0.15684,-1.79068 0.69783,-1.91753 0.99332,-0.23291 1.06821,0.16184 1.33556,7.03965 0.20163,5.18728 1.57469,3.92395 4.15167,-3.81988 1.1877,-3.56902 2.46026,-6.48426 2.82792,-6.47831 0.36765,0.006 2.87748,0.68095 5.5774,1.5 2.69991,0.81905 6.25312,1.48918 7.89602,1.48918 h 2.98709 l -2.8401,-2.63212 c -1.56206,-1.44767 -4.29393,-3.23957 -6.07083,-3.982 -1.7769,-0.74244 -5.6218,-4.25568 -8.54423,-7.8072 -5.03876,-6.12343 -5.40843,-6.37142 -7.14932,-4.79593 -1.12455,1.0177 -1.66534,2.55319 -1.3958,3.96318 0.24201,1.26599 0.0504,2.54262 -0.42587,2.83695 -0.47624,0.29433 -0.86589,0.0428 -0.86589,-0.55905 0,-1.38949 -3.75047,0.46624 -6.28896,3.11178 -0.98392,1.02541 -2.67142,1.86439 -3.75,1.86439 -1.07857,0 -1.96104,0.63004 -1.96104,1.40009 0,0.93584 -1.24347,1.42879 -3.75,1.48663 -14.70735,0.33938 -15.4451,0.24994 -19.37143,-2.34838 -6.12014,-4.05012 -5.09922,-6.11709 1.96277,-3.97385 6.21096,1.88497 5.96523,1.92571 12.05708,-1.99905 8.35989,-5.38598 9.05544,-6.43026 8.01004,-12.02604 -0.48921,-2.61861 -0.66507,-5.12421 -0.39079,-5.56799 0.69466,-1.124 12.28301,-8.97141 13.24816,-8.97141 0.43364,0 2.2665,1.35 4.07302,3 3.69082,3.37104 5.16115,3.76348 5.16115,1.37755 0,-1.32879 0.27149,-1.39712 1.5,-0.37755 1.2519,1.03898 1.5,0.89945 1.5,-0.84363 0,-1.14869 -0.78015,-3.7245 -1.73366,-5.72403 -1.71042,-3.5868 -1.70224,-3.66096 0.61078,-5.53393 1.28945,-1.04413 2.96959,-1.89841 3.73366,-1.89841 2.1242,0 5.38922,3.73603 5.38922,6.16666 0,1.19167 0.2807,1.88596 0.62379,1.54288 0.34309,-0.34309 1.60693,0.81941 2.80854,2.58333 5.08049,7.45795 10.14653,14.57223 14.21931,19.96829 2.3916,3.16865 4.34836,5.99079 4.34836,6.27144 0,0.28065 1.16674,2.27335 2.59277,4.42822 2.11633,3.19799 2.44883,4.52628 1.8095,7.22856 -0.4308,1.82084 -0.6864,3.68157 -0.568,4.13495 0.11841,0.45338 -0.20984,0.56159 -0.72942,0.24047 -1.09942,-0.67948 -5.10485,4.06834 -5.10485,6.051 0,2.46325 -4.57027,2.62466 -9.86182,0.3483 -2.80417,-1.20632 -5.82197,-1.91569 -6.70624,-1.57636 -1.29712,0.49775 -0.77414,1.49161 2.70692,5.14411 2.37306,2.48994 4.65175,5.12952 5.06376,5.86573 0.79761,1.42526 -5.40606,14.66615 -8.45262,18.04098 -0.9625,1.06621 -1.75,2.60371 -1.75,3.41666 0,0.81296 -0.28417,1.19394 -0.63149,0.84663 -0.34731,-0.34732 -1.50137,-0.16594 -2.56456,0.40307 -1.43967,0.77048 -1.65912,1.36467 -0.85975,2.32785 0.83066,1.00088 -0.0572,1.7631 -3.92671,3.37121 -3.70204,1.5385 -4.84473,2.48265 -4.40178,3.63697 0.32905,0.85748 1.00012,1.55905 1.49127,1.55905 0.49116,0 0.89302,0.45 0.89302,1 0,0.55 -2.00383,1 -4.45295,1 -2.44912,0 -5.6399,0.54081 -7.09062,1.2018 l -2.63767,1.2018 3.25267,2.6547 c 6.04505,4.93372 2.80146,6.67647 -12.87882,6.91966 -10.94283,0.16972 -13.07628,1.03241 -6.66402,2.6947 2.73427,0.70881 5.87141,1.30433 6.97141,1.32336 1.1,0.019 2.57774,0.40119 3.28387,0.84924 1.57959,1.00228 0.52426,4.15474 -1.39086,4.15474 -0.76616,0 -1.39301,0.9 -1.39301,2 0,1.26852 -0.66667,2 -1.82279,2 -1.94724,0 -14.66189,5.85074 -14.04469,6.46277 0.20211,0.20042 3.51748,0.67994 7.36748,1.0656 3.85,0.38566 7.15093,1.10235 7.33541,1.59265 0.18447,0.49029 0.751,0.63459 1.25894,0.32066 1.74121,-1.07613 4.70688,0.63022 5.31644,3.0589 0.86837,3.45988 5.25008,7.49942 8.13466,7.49942 1.35,0 2.45455,0.45 2.45455,1 0,0.55 0.70155,1 1.55901,1 0.85746,0 1.28015,0.45121 0.93931,1.0027 -0.39978,0.64686 -1.25055,0.66508 -2.39734,0.0513 -0.9777,-0.52325 -2.78874,-0.68695 -4.02454,-0.36378 -1.98191,0.51828 -2.16646,1.01345 -1.56484,4.19866 0.37513,1.98609 1.05194,7.43608 1.50402,12.11108 0.45208,4.675 1.31626,10.6636 1.9204,13.30799 0.64033,2.8028 0.738,5.45207 0.23419,6.35233 -0.47533,0.84938 -0.50269,3.41078 -0.0608,5.692 1.16469,6.0124 1.06974,7.32565 -0.65429,9.04967 -1.33174,1.33175 -6.16572,1.54452 -35.0425,1.54245 -29.81013,-0.002 -33.56538,-0.1789 -34.11286,-1.60561 z m 34.11733,-11.20472 c 0.29433,-0.47624 1.70935,-0.64143 3.14449,-0.36709 l 2.60934,0.49881 -0.56709,-8.88292 c -0.31189,-4.8856 -0.83536,-16.08291 -1.16326,-24.88291 -0.64726,-17.37064 -1.64592,-20.89599 -5.75379,-20.31127 -1.95426,0.27817 -2.16149,0.84297 -1.94872,5.31127 0.16916,3.55256 -0.0148,4.42102 -0.63542,3 -0.8252,-1.88942 -0.907,-1.86177 -1.47941,0.5 -0.77889,3.2137 -1.53225,44.75767 -0.82448,45.46544 0.86846,0.86846 6.03674,0.60972 6.61834,-0.33133 z m 14.95889,-7.63411 c -0.0682,-2.2 -0.66774,-5.8 -1.33232,-8 -0.66457,-2.2 -1.45696,-5.30306 -1.76087,-6.89568 -0.30392,-1.59262 -1.16411,-4.06762 -1.91153,-5.5 l -1.35896,-2.60432 -0.20341,4 c -0.25518,5.01813 0.0145,11.45824 0.76675,18.30877 0.55385,5.04389 0.71619,5.29336 3.25363,5 2.42244,-0.28007 2.65918,-0.68061 2.54671,-4.30877 z m 40.624,2 c 0,-1.375 0.45,-2.5 1,-2.5 0.55,0 1,1.125 1,2.5 0,1.375 -0.45,2.5 -1,2.5 -0.55,0 -1,-1.125 -1,-2.5 z m -21.1875,-59.18312 c 0.72187,-0.28887 1.58437,-0.25334 1.91666,0.0789 0.33229,0.33229 -0.25833,0.56864 -1.3125,0.52522 -1.16494,-0.048 -1.4019,-0.28494 -0.60416,-0.60417 z m -71.8125,-46.31688 c 0,-0.55 0.45,-1 1,-1 0.55,0 1,0.45 1,1 0,0.55 -0.45,1 -1,1 -0.55,0 -1,-0.45 -1,-1 z M 456.73652,601.69 c -1.42889,-1.54593 -0.46396,-1.84178 1.64619,-0.50473 0.74622,0.47283 0.97122,1.0937 0.5,1.37973 -0.47122,0.28602 -1.43701,-0.10773 -2.14619,-0.875 z m -0.0886,-5.74806 c -1.21556,-1.46466 -0.5256,-2.64698 1.54468,-2.64698 1.4897,0 1.82538,2.57786 0.44664,3.42997 -0.48768,0.3014 -1.38377,-0.0509 -1.99132,-0.78299 z m -5.12198,-5.56365 c 0,-1.22834 0.64568,-2.08333 1.57332,-2.08333 0.93124,0 1.44137,0.68037 1.25,1.66713 -0.48655,2.50877 -2.82332,2.85324 -2.82332,0.4162 z m 12.4427,0.49843 c -1.06676,-0.78003 -1.59027,-1.76753 -1.16335,-2.19445 0.42691,-0.42691 1.7637,0.2113 2.97065,1.41824 2.4462,2.4462 1.20536,2.97912 -1.8073,0.77621 z m -25.55378,-3.1636 c -2.41391,-2.01073 -4.7559,-4.16489 -5.20443,-4.78702 -0.46606,-0.64644 -0.56351,-0.2275 -0.22742,0.97767 0.35705,1.28038 -0.0101,2.60524 -0.9345,3.37245 -0.83741,0.69499 -1.52597,0.87103 -1.53013,0.39118 -0.004,-0.47984 -0.47303,-3.74115 -1.04195,-7.24735 -0.89743,-5.53079 -0.80971,-6.62318 0.66254,-8.25 0.93332,-1.0313 2.08355,-1.87509 2.55608,-1.87509 0.47253,0 3.34529,-2.025 6.38393,-4.5 3.03863,-2.475 6.12747,-4.5 6.86409,-4.5 0.73662,0 3.08161,2.5875 5.21109,5.75 2.12948,3.1625 4.65928,6.33801 5.62178,7.0567 2.14058,1.59835 2.31364,5.1933 0.25,5.1933 -0.825,0 -1.5,0.68912 -1.5,1.53138 0,0.84226 0.675,1.79041 1.5,2.10699 1.59426,0.61178 2.10343,3.36163 0.62244,3.36163 -0.48265,0 -1.3992,-0.62855 -2.03677,-1.39677 -1.29669,-1.56242 -5.08219,-0.9949 -5.092,0.7634 -0.005,0.91172 -3.47434,3.54665 -7.10475,5.39611 -0.33609,0.17122 -2.58609,-1.33384 -5,-3.34458 z m 4.02133,-8.0958 c 2.84366,-1.86179 4.08975,-3.38522 4.08975,-5 0,-2.65142 -0.3006,-2.75811 -3.31575,-1.17685 -2.0772,1.08936 -2.10428,1.0526 -0.55253,-0.75 1.97377,-2.29287 3.34107,-6.39551 2.13144,-6.39551 -1.3083,0 -9.56942,5.42248 -11.09925,7.2854 -1.82608,2.22366 -0.6123,4.02493 1.83103,2.7173 3.32853,-1.78137 4.36595,-1.20244 2.62007,1.46211 -3.34829,5.11013 -1.73698,5.80696 4.29524,1.85755 z m 40.90225,4.99452 c 0.72187,-0.28887 1.58437,-0.25334 1.91666,0.0789 0.33229,0.33229 -0.25833,0.56864 -1.3125,0.52522 -1.16494,-0.048 -1.4019,-0.28494 -0.60416,-0.60417 z m -16.30251,-9.30645 c -1.5753,-1.64427 -2.51916,-3.33177 -2.09746,-3.75 0.42171,-0.41824 1.75581,0.47707 2.96467,1.98957 1.20886,1.5125 2.74352,2.75 3.41036,2.75 0.66684,0 1.21244,0.45 1.21244,1 0,1.93184 -2.65481,0.96974 -5.49001,-1.98957 z m -7.53027,-6.29224 c -0.83615,-0.67 -4.3644,-4.68178 -7.84056,-8.91505 -3.47615,-4.23327 -6.81645,-7.86224 -7.42288,-8.06438 -1.03112,-0.34371 1.67664,-3.8201 8.78372,-11.2771 11.71899,-12.29599 11.77009,-12.37114 11.13075,-16.36932 -0.57523,-3.59731 -0.31628,-4.05321 5.50047,-9.68369 3.35726,-3.24976 7.03231,-6.92115 8.16678,-8.15865 1.13447,-1.2375 2.63545,-2.25 3.33552,-2.25 0.70006,0 4.00727,3.2625 7.34935,7.25 3.34207,3.9875 6.67346,7.925 7.40309,8.75 3.1951,3.61274 8.4318,11.8489 7.88281,12.39789 -1.1639,1.1639 -3.26877,0.58572 -3.26877,-0.89789 0,-0.825 -0.3375,-1.50364 -0.75,-1.50808 -1.00091,-0.0108 -11.25,11.09256 -11.25,12.18766 0,0.47219 -1.17478,0.56367 -2.61061,0.2033 -2.32328,-0.58311 -2.53598,-0.42011 -1.93261,1.48095 1.11309,3.50703 -1.01147,2.46574 -6.13845,-3.0086 -6.53564,-6.97843 -8.55056,-8.85523 -9.5069,-8.85523 -1.54592,0 -0.79612,2.04255 2.48161,6.76025 7.86978,11.32715 10.66376,18.23975 7.37225,18.23975 -0.73408,0 -2.50397,1.2375 -3.93308,2.75 -5.13509,5.43471 -10.78889,10.2494 -11.99904,10.21819 -0.67825,-0.0175 -1.9173,-0.57999 -2.75345,-1.25 z m 3.9477,-16.35305 c 3.42344,-4.35221 2.42689,-6.6955 -1.86958,-4.3961 -1.7346,0.92833 -1.7332,0.81706 0.0333,-2.6479 1.01422,-1.98933 1.6192,-3.98074 1.3444,-4.42537 -0.65174,-1.05454 -3.43257,0.0361 -5.87415,2.30374 -1.0662,0.99027 -2.23147,1.80049 -2.58948,1.80049 -0.35801,0 -1.1873,1.17721 -1.84287,2.61603 -1.0417,2.28629 -0.90438,2.90324 1.08948,4.89452 3.18584,3.18171 7.13831,3.12251 9.70886,-0.14541 z m -7.32112,-0.78158 c 0.33422,-0.87096 1.04703,-1.58356 1.58402,-1.58356 1.31439,0 0.49133,2.27278 -1.0035,2.77106 -0.73075,0.24358 -0.95424,-0.21359 -0.58052,-1.1875 z m 24.29486,-25.03245 c 2.98821,-1.54527 6.66404,-6.31925 5.64797,-7.33531 -0.33587,-0.33587 -1.90375,0.15318 -3.48419,1.08676 -4.2921,2.53541 -5.68982,2.04958 -2.70131,-0.93893 2.26511,-2.2651 3.71465,-7.36363 2.09352,-7.36363 -1.19907,0 -10.45715,9.36251 -10.45715,10.5751 0,0.79871 1.06227,1.2287 2.75,1.11316 2.32085,-0.15888 2.70117,0.16286 2.43714,2.06174 -0.3679,2.64585 -0.005,2.72417 3.71402,0.80111 z m -10.3364,42.55367 c -0.3043,-0.49237 0.0751,-1.13636 0.84321,-1.4311 1.4663,-0.56267 2.59203,0.0857 2.59203,1.49298 0,1.11676 -2.73728,1.06745 -3.43524,-0.0619 z m 58.43524,-2.10478 c 0,-0.55 0.70155,-1 1.55901,-1 0.85746,0 1.2809,0.45 0.94099,1 -0.33992,0.55 -1.04148,1 -1.55902,1 -0.51754,0 -0.94098,-0.45 -0.94098,-1 z m -33.54222,-8.06831 c -0.58688,-0.94959 8.24518,-6.88158 10.29222,-6.91269 0.6875,-0.0104 1.25,-0.38614 1.25,-0.83486 0,-0.44872 1.72395,-1.78478 3.83099,-2.969 2.92323,-1.64295 4.108,-1.87615 5,-0.98414 1.28753,1.28752 1.61215,5.76387 0.41901,5.77767 -0.4125,0.005 -2.325,1.48227 -4.25,3.28333 -3.13655,2.93461 -4.14907,3.28717 -9.75042,3.39517 -3.43772,0.0663 -6.49403,-0.27369 -6.7918,-0.75548 z m -8.46692,-7.4427 c -1.00477,-1.21067 -0.94352,-1.48899 0.32767,-1.48899 1.86691,0 3.08756,1.63098 1.81108,2.41989 -0.49665,0.30695 -1.45909,-0.11196 -2.13875,-0.9309 z m 4.00914,0.57002 c 0,-0.51754 0.45,-1.21909 1,-1.55901 0.55,-0.33992 1,0.0835 1,0.94098 0,0.85746 -0.45,1.55902 -1,1.55902 -0.55,0 -1,-0.42345 -1,-0.94099 z m 0.5,-7.05901 c -0.39916,-0.64585 -0.27574,-1.62427 0.27426,-2.17427 0.66667,-0.66666 1.24191,-0.60858 1.72574,0.17427 0.39915,0.64584 0.27573,1.62426 -0.27427,2.17426 -0.66667,0.66667 -1.24191,0.60858 -1.72573,-0.17426 z m 5.74377,-3.66436 c -1.94569,-0.78443 -0.40802,-2.33564 2.31524,-2.33564 2.74449,0 3.27134,1.46738 0.8592,2.39301 -0.86998,0.33384 -1.65748,0.57146 -1.75,0.52804 -0.0925,-0.0434 -0.73352,-0.30686 -1.42444,-0.58541 z m 9.75623,-0.75231 c 0,-0.87083 0.7125,-1.58333 1.58333,-1.58333 0.87083,0 1.40521,0.53437 1.1875,1.1875 -0.61808,1.85422 -2.77083,2.16176 -2.77083,0.39583 z m -1.5,-4.58333 c 0.33991,-0.55 0.81647,-1 1.05901,-1 0.24254,0 0.44099,0.45 0.44099,1 0,0.55 -0.47656,1 -1.05902,1 -0.58246,0 -0.7809,-0.45 -0.44098,-1 z m 10.4725,-5.68965 c -1.35988,-0.9293 -2.83236,-2.2793 -3.27219,-3 -0.43983,-0.72069 -1.58185,-1.31035 -2.53781,-1.31035 -1.85569,0 -17.1625,-16.06486 -17.1625,-18.01245 0,-1.51632 18.03242,-19.98755 19.51272,-19.98755 2.92704,0 17.11952,18.8455 19.20396,25.5 1.61689,5.16184 1.5941,5.38872 -0.27339,2.7225 -1.9269,-2.75103 -3.59838,-2.81361 -5.94329,-0.2225 -0.99549,1.1 -2.38491,2 -3.0876,2 -0.7027,0 -1.55134,0.86239 -1.88588,1.91642 -0.33453,1.05403 -1.93986,2.38062 -3.56738,2.94798 -3.62507,1.2637 -3.67788,2.12798 -0.37025,6.05887 2.96038,3.51821 2.85364,3.75841 -0.61639,1.38708 z m -4.40578,-21.92904 c 3.84184,-2.93032 4.61696,-6.38131 1.43328,-6.38131 -2.23797,0 -2.56608,-1.03393 -0.86722,-2.73279 1.16571,-1.16571 0.54099,-4.2825 -0.8514,-4.24766 -0.42976,0.0108 -3.15935,2.26894 -6.06576,5.01819 -4.26172,4.03129 -4.9618,5.12243 -3.61753,5.63827 0.91676,0.3518 2.50112,0.11861 3.5208,-0.51819 2.7079,-1.69111 2.91829,-1.45812 1.37298,1.52048 -2.53197,4.88037 -0.14227,5.6823 5.07485,1.70301 z m 11.43328,21.55967 c 0,-0.58246 0.45,-0.7809 1,-0.44098 0.55,0.33992 1,0.81647 1,1.05901 0,0.24254 -0.45,0.44099 -1,0.44099 -0.55,0 -1,-0.47656 -1,-1.05902 z m 3.25,-2.19098 c 0.22916,-0.6875 1.01666,-1.25 1.75,-1.25 0.73333,0 1.52083,0.5625 1.75,1.25 0.24786,0.74359 -0.46112,1.25 -1.75,1.25 -1.28889,0 -1.99787,-0.50641 -1.75,-1.25 z m -3.65345,-3.59377 c -0.34605,-0.55992 -0.1419,-1.31919 0.45367,-1.68727 1.53748,-0.95022 2.52946,0.35135 1.24598,1.63484 -0.71818,0.71818 -1.27753,0.73543 -1.69965,0.0524 z m 4.40345,-3.15623 c -1.20678,-0.77988 -1.04862,-0.97237 0.80901,-0.98469 1.28757,-0.009 2.03562,0.42706 1.69099,0.98469 -0.74319,1.2025 -0.63927,1.2025 -2.5,0 z"
       id="path17" />
    <path
       style="fill:#a90a0b"
       d="m 465.54731,723.54496 c 0.0117,-3.1625 0.67713,-15.425 1.47864,-27.25 0.8015,-11.825 1.46688,-22.53343 1.47863,-23.79651 0.0139,-1.49151 1.07074,-2.89364 3.01504,-4 3.66444,-2.08517 3.77246,-2.9731 0.46277,-3.80378 -4.3585,-1.09391 -2.08588,-2.85393 5.12672,-3.97037 5.99687,-0.92825 6.51783,-1.16562 3.91684,-1.78468 -1.65,-0.39272 -4.38195,-1.14842 -6.071,-1.67935 -1.68905,-0.53092 -3.82525,-0.96531 -4.74712,-0.96531 -0.92187,0 -3.52707,-1.67223 -5.78935,-3.71605 -3.13356,-2.83099 -5.99233,-7.56783 -12.00288,-19.88814 -4.33931,-8.89465 -7.88965,-16.5811 -7.88965,-17.081 0,-1.2409 7.33172,-8.31481 8.61784,-8.31481 0.56844,0 2.01197,1.0415 3.20784,2.31445 1.66865,1.77619 2.17432,3.5489 2.17432,7.62244 0,4.42256 0.23227,5.11523 1.39241,4.1524 0.76583,-0.63558 1.92356,-2.43791 2.57274,-4.00517 1.62995,-3.93504 9.91987,-9.87547 11.12521,-7.97215 0.48346,0.76341 0.89279,2.28803 0.90964,3.38803 0.0168,1.1 0.44789,2.65975 0.95789,3.46611 0.73658,1.16461 1.15327,0.85614 2.02624,-1.5 4.94605,-13.34942 5.08389,-13.509 9.93359,-11.50019 2.22657,0.92227 3.57766,2.82396 5.9423,8.36388 2.73391,6.40508 5.19273,16.32004 5.10957,20.60386 -0.0635,3.27209 -1.6982,-1.35413 -2.38042,-6.73672 -0.59977,-4.73214 -2.04506,-9.1599 -4.71126,-14.43337 -0.48285,-0.95504 -0.87791,-2.40171 -0.87791,-3.21482 0,-1.62714 -2.96184,-3.54875 -5.4698,-3.54875 -1.4792,0 -5.18229,6.89071 -5.85849,10.90147 -0.44571,2.64367 -2.71411,6.19036 -3.6065,5.63883 -0.45894,-0.28364 -1.13894,-2.54624 -1.5111,-5.02801 -0.45155,-3.01112 -1.16877,-4.51229 -2.15588,-4.51229 -2.59034,0 -7.32054,4.23454 -8.40677,7.52586 -1.23982,3.75671 -5.38812,7.96506 -6.91885,7.01901 -0.68536,-0.42357 -0.87882,-3.09128 -0.53337,-7.35477 0.41158,-5.0796 0.18025,-7.145 -0.96095,-8.57977 -1.36885,-1.72097 -1.70804,-1.75534 -3.79943,-0.38501 -1.26302,0.82756 -2.9441,2.7149 -3.73573,4.19408 -1.54623,2.88916 -1.79596,1.98849 3.67976,13.27167 0.97741,2.01403 2.22711,4.14497 2.77711,4.7354 0.55,0.59044 2.03201,3.1869 3.29337,5.76991 1.26136,2.583 3.15084,4.96852 4.19885,5.30115 1.04801,0.33262 2.192,1.50753 2.54219,2.6109 0.3502,1.10338 1.72322,2.41922 3.05115,2.9241 1.32794,0.50488 2.41886,1.7166 2.42427,2.69272 0.01,1.7767 5.16169,4.09117 14.49017,6.5097 6.89153,1.78672 7.11818,2.05935 2.5,3.00718 -7.41341,1.5215 -9.39936,2.57175 -8.01567,4.23899 1.46905,1.7701 0.50862,3.51888 -1.93257,3.51888 -1.00661,0 -2.89255,0.85931 -4.19098,1.90957 -2.05439,1.66174 -2.43818,3.05695 -2.95713,10.75 -0.32799,4.86224 -1.18646,16.76844 -1.90771,26.45824 -0.72125,9.6898 -1.03453,18.33926 -0.69616,19.22102 0.54748,1.42671 4.30273,1.60346 34.11286,1.60561 39.65723,0.003 37.8529,0.53824 35.69679,-10.59212 -0.44191,-2.28122 -0.41455,-4.84262 0.0608,-5.692 0.50381,-0.90026 0.40614,-3.54953 -0.23419,-6.35233 -0.60414,-2.64439 -1.46832,-8.63299 -1.9204,-13.30799 -0.45208,-4.675 -1.12889,-10.12499 -1.50402,-12.11108 -0.60162,-3.18521 -0.41707,-3.68038 1.56484,-4.19866 1.2358,-0.32317 3.04684,-0.15947 4.02454,0.36378 1.14679,0.61374 1.99756,0.59552 2.39734,-0.0513 0.34084,-0.55149 -0.0818,-1.0027 -0.93931,-1.0027 -0.85746,0 -1.55901,-0.45 -1.55901,-1 0,-0.55 -1.10455,-1 -2.45455,-1 -2.88458,0 -7.26629,-4.03954 -8.13466,-7.49942 -0.60956,-2.42868 -3.57523,-4.13503 -5.31644,-3.0589 -0.50794,0.31393 -1.07447,0.16963 -1.25894,-0.32066 -0.18448,-0.4903 -3.48541,-1.20699 -7.33541,-1.59265 -3.85,-0.38566 -7.16537,-0.86518 -7.36748,-1.0656 -0.6172,-0.61203 12.09745,-6.46277 14.04469,-6.46277 1.15612,0 1.82279,-0.73148 1.82279,-2 0,-1.1 0.62685,-2 1.39301,-2 1.91512,0 2.97045,-3.15246 1.39086,-4.15474 -0.70613,-0.44805 -2.18387,-0.83021 -3.28387,-0.84924 -1.1,-0.019 -4.23714,-0.61455 -6.97141,-1.32336 -6.41226,-1.66229 -4.27881,-2.52498 6.66402,-2.6947 15.68028,-0.24319 18.92387,-1.98594 12.87882,-6.91966 l -3.25267,-2.6547 2.63767,-1.2018 c 1.45072,-0.66099 4.6415,-1.2018 7.09062,-1.2018 2.44912,0 4.45295,-0.45 4.45295,-1 0,-0.55 -0.40186,-1 -0.89302,-1 -0.49115,0 -1.16222,-0.70157 -1.49127,-1.55905 -0.44295,-1.15432 0.69974,-2.09847 4.40178,-3.63697 3.86954,-1.60811 4.75737,-2.37033 3.92671,-3.37121 -0.79937,-0.96318 -0.57992,-1.55737 0.85975,-2.32785 1.06319,-0.56901 2.21725,-0.75039 2.56456,-0.40307 0.34732,0.34731 0.63149,-0.0337 0.63149,-0.84663 0,-0.81295 0.7875,-2.35045 1.75,-3.41666 3.04656,-3.37483 9.25023,-16.61572 8.45262,-18.04098 -0.41201,-0.73621 -2.6907,-3.37579 -5.06376,-5.86573 -3.48106,-3.6525 -4.00404,-4.64636 -2.70692,-5.14411 0.88427,-0.33933 3.90207,0.37004 6.70624,1.57636 5.29155,2.27636 9.86182,2.11495 9.86182,-0.3483 0,-1.98266 4.00543,-6.73048 5.10485,-6.051 0.51958,0.32112 0.84783,0.21291 0.72942,-0.24047 -0.1184,-0.45338 0.1372,-2.31411 0.568,-4.13495 0.63933,-2.70228 0.30683,-4.03057 -1.8095,-7.22856 -1.42603,-2.15487 -2.59277,-4.14757 -2.59277,-4.42822 0,-0.28065 -1.95676,-3.10279 -4.34836,-6.27144 -4.07278,-5.39606 -9.13882,-12.51034 -14.21931,-19.96829 -1.20161,-1.76392 -2.46545,-2.92642 -2.80854,-2.58333 -0.34309,0.34308 -0.62379,-0.35121 -0.62379,-1.54288 0,-2.43063 -3.26502,-6.16666 -5.38922,-6.16666 -0.76407,0 -2.44421,0.85428 -3.73366,1.89841 -2.31302,1.87297 -2.3212,1.94713 -0.61078,5.53393 0.95351,1.99953 1.73366,4.57534 1.73366,5.72403 0,1.74308 -0.2481,1.88261 -1.5,0.84363 -1.22851,-1.01957 -1.5,-0.95124 -1.5,0.37755 0,2.38593 -1.47033,1.99349 -5.16115,-1.37755 -1.80652,-1.65 -3.63938,-3 -4.07302,-3 -0.96515,0 -12.5535,7.84741 -13.24816,8.97141 -0.27428,0.44378 -0.0984,2.94938 0.39079,5.56799 1.0454,5.59578 0.34985,6.64006 -8.01004,12.02604 -6.09185,3.92476 -5.84612,3.88402 -12.05708,1.99905 -7.06199,-2.14324 -8.08291,-0.0763 -1.96277,3.97385 3.92633,2.59832 4.66408,2.68776 19.37143,2.34838 2.50653,-0.0578 3.75,-0.55079 3.75,-1.48663 0,-0.77005 0.88247,-1.40009 1.96104,-1.40009 1.07858,0 2.76608,-0.83898 3.75,-1.86439 2.53849,-2.64554 6.28896,-4.50127 6.28896,-3.11178 0,0.60181 0.38965,0.85338 0.86589,0.55905 0.47624,-0.29433 0.66788,-1.57096 0.42587,-2.83695 -0.26954,-1.40999 0.27125,-2.94548 1.3958,-3.96318 1.74089,-1.57549 2.11056,-1.3275 7.14932,4.79593 2.92243,3.55152 6.76733,7.06476 8.54423,7.8072 1.7769,0.74243 4.50877,2.53433 6.07083,3.982 l 2.8401,2.63212 h -2.98709 c -1.6429,0 -5.19611,-0.67013 -7.89602,-1.48918 -2.69992,-0.81905 -5.20975,-1.49405 -5.5774,-1.5 -0.36766,-0.006 -1.64022,2.90929 -2.82792,6.47831 -2.57698,7.74383 -3.95004,9.00716 -4.15167,3.81988 -0.26735,-6.87781 -0.34224,-7.27256 -1.33556,-7.03965 -0.54099,0.12685 -0.85501,0.98974 -0.69783,1.91753 0.15718,0.9278 -0.71457,2.22227 -1.93722,2.87662 -1.86105,0.996 -2.43858,0.89489 -3.54701,-0.62097 -1.27082,-1.73796 -1.60232,-1.71944 -8.25354,0.46109 -7.14935,2.34383 -8.66403,3.4758 -11.50271,8.59637 -0.91471,1.65 -2.81443,4.575 -4.22159,6.5 -2.40964,3.2964 -2.53162,4.03808 -2.09682,12.75 0.2539,5.0875 0.0743,9.25 -0.39901,9.25 -0.73331,0 -1.46964,-12.93747 -1.03679,-18.21671 0.0774,-0.94419 2.53589,-5.16673 5.46328,-9.38343 5.08938,-7.33089 5.64851,-7.79609 12.76431,-10.61983 5.76221,-2.2866 7.83293,-2.70882 9.17486,-1.87077 1.40437,0.87704 2.04326,0.60895 3.3684,-1.41347 2.91137,-4.44331 5.27836,-2.79881 5.52129,3.83599 0.0727,1.98486 0.28038,2.4212 0.55609,1.16822 1.76584,-8.02493 3.71889,-10.53506 7.38001,-9.48506 3.12021,0.89486 4.25723,-0.57527 1.31742,-1.70338 -0.89676,-0.34412 -3.1805,-2.2425 -5.07498,-4.21862 -2.65359,-2.76794 -3.5771,-3.24852 -4.02195,-2.09294 -1.05133,2.73099 -7.18097,7.81465 -10.90409,9.04339 -5.91321,1.95154 -22.03499,0.78056 -27.8218,-2.02079 -4.6573,-2.25456 -8.53548,-6.8706 -8.54297,-10.16836 -0.002,-0.90516 2.13377,-2.98647 4.74627,-4.62512 6.8414,-4.29118 18.31346,-10.52184 18.58551,-10.0941 0.12767,0.20074 0.81209,2.0623 1.52093,4.13682 l 1.28881,3.77183 -4.82263,4.56401 -4.82262,4.56401 4,-2.24501 c 6.12162,-3.43577 7.42791,-5.57486 6.99924,-11.46151 -0.20262,-2.78238 -0.0603,-5.52422 0.31618,-6.09298 1.71802,-2.59524 13.69667,-9.50745 15.78448,-9.10834 1.55311,0.29689 2.063,0.0213 1.70181,-0.91998 -0.85491,-2.22787 2.45798,-1.52504 4.14158,0.87863 0.85619,1.22238 1.55671,1.69894 1.55671,1.05902 0,-0.63992 -0.45,-1.4416 -1,-1.78152 -0.55,-0.33992 -1,-1.61338 -1,-2.82991 0,-1.58686 1.25712,-2.8986 4.44892,-4.64219 4.34753,-2.37494 4.49566,-2.38803 6.5,-0.57413 1.12809,1.02091 2.05108,2.25567 2.05108,2.74391 0,0.48825 1.72553,3.231 3.83451,6.09502 2.10898,2.86401 6.31999,8.8073 9.35779,13.2073 3.03781,4.4 8.14481,11.78938 11.3489,16.42085 l 5.8256,8.42086 -3.9334,7.38441 c -5.60785,10.52796 -6.1755,10.9239 -11.98022,8.35619 -5.01726,-2.21937 -7.83093,-2.66694 -7.28652,-1.15906 0.18334,0.50779 2.28719,3.00048 4.67524,5.53931 2.38805,2.53883 4.06368,5.16087 3.72364,5.82675 -0.34005,0.66588 -2.60872,4.36069 -5.0415,8.21069 -2.43277,3.85 -5.79604,9.305 -7.47393,12.12224 -2.66184,4.46933 -3.56052,5.20376 -7.05041,5.76181 -4.62379,0.73938 -4.81343,1.13259 -1.7497,3.62798 l 2.25,1.83261 -2.8151,1.07768 c -1.54831,0.59272 -5.03581,1.07768 -7.75,1.07768 -2.7142,0 -4.9253,0.3375 -4.91355,0.75 0.0117,0.4125 1.79189,2.00241 3.95589,3.53315 2.28288,1.61482 3.71962,3.34323 3.42256,4.11735 -0.51086,1.33129 -7.51023,2.57413 -14.59079,2.5908 -2.03004,0.005 -3.94445,0.41882 -4.25425,0.92008 -0.55153,0.8924 1.5986,1.35791 12.20138,2.64161 4.79743,0.58084 10.48009,3.53471 9.22582,4.79563 -0.28492,0.28643 -7.23966,2.23541 -15.45497,4.33106 -16.28351,4.15377 -16.65364,5.32059 -1.02699,3.23752 21.78797,-2.9044 25.58505,-1.17296 12,5.4719 -4.42937,2.16653 -7.37106,4.12965 -6.59086,4.39835 0.77504,0.26692 5.17767,-0.10093 9.78363,-0.81744 5.03759,-0.78366 8.68679,-0.93762 9.15826,-0.38638 0.80274,0.93853 1.10316,2.41368 5.58354,27.41637 1.42909,7.975 3.42777,19 4.44151,24.5 1.01374,5.5 1.65478,10.3375 1.42452,10.75 -0.23025,0.4125 -22.66708,0.75 -49.85962,0.75 h -49.44098 z m 92.97864,-13.75 c 0,-1.375 -0.45,-2.5 -1,-2.5 -0.55,0 -1,1.125 -1,2.5 0,1.375 0.45,2.5 1,2.5 0.55,0 1,-1.125 1,-2.5 z m -21.27084,-59.10417 c -0.33229,-0.33229 -1.19479,-0.36782 -1.91666,-0.0789 -0.79774,0.31923 -0.56078,0.55619 0.60416,0.60417 1.05417,0.0434 1.64479,-0.19293 1.3125,-0.52522 z m -6.22916,-83.39583 c 0.33991,-0.55 -0.0835,-1 -0.94099,-1 -0.85746,0 -1.55901,0.45 -1.55901,1 0,0.55 0.42344,1 0.94098,1 0.51754,0 1.2191,-0.45 1.55902,-1 z m -19.5,-10.708 c 1.925,-1.80106 3.8375,-3.27856 4.25,-3.28333 1.19314,-0.0138 0.86852,-4.49015 -0.41901,-5.77767 -0.892,-0.89201 -2.07677,-0.65881 -5,0.98414 -2.10704,1.18422 -3.83099,2.52028 -3.83099,2.969 0,0.44872 -0.5625,0.82441 -1.25,0.83486 -2.04704,0.0311 -10.8791,5.9631 -10.29222,6.91269 0.29777,0.48179 3.35408,0.82176 6.7918,0.75548 5.60135,-0.108 6.61387,-0.46056 9.75042,-3.39517 z M 494.32472,715.7604 c -0.70777,-0.70777 0.0456,-42.25174 0.82448,-45.46544 0.57241,-2.36177 0.65421,-2.38942 1.47941,-0.5 0.62064,1.42102 0.80458,0.55256 0.63542,-3 -0.21277,-4.4683 -0.006,-5.0331 1.94872,-5.31127 4.10787,-0.58472 5.10653,2.94063 5.75379,20.31127 0.3279,8.8 0.85137,19.99731 1.16326,24.88291 l 0.56709,8.88292 -2.60934,-0.49881 c -1.43514,-0.27434 -2.85016,-0.10915 -3.14449,0.36709 -0.5816,0.94105 -5.74988,1.19979 -6.61834,0.33133 z m 5.18495,-2.32243 c -0.009,-0.35366 -0.4278,-5.61557 -0.93078,-11.69313 -1.48035,-17.88726 -2.4848,-18.8578 -3.05294,-2.94988 -0.275,7.7 -0.1296,14.53575 0.32311,15.19056 0.80355,1.16225 3.69295,0.73006 3.66061,-0.54755 z m 4.69458,-21.42273 c -0.3521,-11.70385 -0.92426,-22.70008 -1.27146,-24.43608 -0.56848,-2.84237 -2.96088,-5.0635 -4.16114,-3.86324 -0.99378,0.99378 3.03146,46.60045 4.29313,48.64188 1.55459,2.51538 1.73191,-0.65025 1.13947,-20.34256 z m 5.89736,15.08849 c -0.75222,-6.85053 -1.02193,-13.29064 -0.76675,-18.30877 l 0.20341,-4 1.35896,2.60432 c 0.74742,1.43238 1.60761,3.90738 1.91153,5.5 0.30391,1.59262 1.0963,4.69568 1.76087,6.89568 0.66458,2.2 1.26412,5.8 1.33232,8 0.11247,3.62816 -0.12427,4.0287 -2.54671,4.30877 -2.53744,0.29336 -2.69978,0.0439 -3.25363,-5 z m 4.42434,1.181 c 0,-2.35574 -2.75524,-13.07878 -3.56927,-13.89114 -0.61801,-0.61674 0.3956,13.36977 1.13886,15.71475 0.5848,1.84506 2.43041,0.46024 2.43041,-1.82361 z m -53.92106,-29.57311 c 0.048,-1.16494 0.28494,-1.4019 0.60417,-0.60416 0.28887,0.72187 0.25334,1.58437 -0.079,1.91666 -0.33229,0.3323 -0.56864,-0.25833 -0.52522,-1.3125 z m -77.57894,-34.41666 c 0.33991,-0.55 0.81647,-1 1.05901,-1 0.24254,0 0.44099,0.45 0.44099,1 0,0.55 -0.47656,1 -1.05902,1 -0.58246,0 -0.7809,-0.45 -0.44098,-1 z m 22,-13 c 7.68526,-7.7 14.1982,-14 14.4732,-14 0.275,0 -5.78794,6.3 -13.4732,14 -7.68527,7.7 -14.19821,14 -14.47321,14 -0.275,0 5.78794,-6.3 13.47321,-14 z m 94.1375,9.9375 c -0.35063,-1.75313 -0.60588,-4.14375 -0.56722,-5.3125 0.0684,-2.06843 0.0919,-2.07176 0.88045,-0.125 0.68519,1.6915 0.92288,1.42157 1.541,-1.75 0.83992,-4.30966 0.67807,-4.23068 4.55793,-2.22432 3.50396,1.81197 3.48573,1.88916 0.95034,-4.02568 -1.1,-2.5662 -1.96133,-5.64101 -1.91405,-6.83291 0.0785,-1.97997 0.15318,-1.95122 0.86453,0.33291 0.42822,1.375 1.71348,4.3 2.85613,6.5 1.14266,2.2 2.37119,5.21274 2.73007,6.69497 0.56853,2.34813 0.36333,2.6732 -1.59435,2.52573 -1.23578,-0.0931 -2.44769,-0.9372 -2.69314,-1.8758 -0.55491,-2.12198 -3.19197,-3.24613 -3.70179,-1.57804 -0.20729,0.67822 -0.62392,2.9943 -0.92584,5.14683 -0.73996,5.2755 -2.18867,6.50076 -2.98406,2.52381 z m -108.6375,-0.31506 c 0,-0.20765 0.7875,-0.99515 1.75,-1.75 1.58605,-1.24387 1.62142,-1.2085 0.37755,0.37756 -1.30637,1.66574 -2.12755,2.19548 -2.12755,1.37244 z m 15.5,-15.62244 c 6.5828,-6.6 12.19373,-12 12.46873,-12 0.275,0 -4.88593,5.4 -11.46873,12 -6.58281,6.6 -12.19374,12 -12.46874,12 -0.275,0 4.88593,-5.4 11.46874,-12 z m 25.90498,-1.25 -1.90498,-2.25 2.25,1.90498 c 2.11444,1.79022 2.70524,2.59502 1.90498,2.59502 -0.18975,0 -1.20225,-1.0125 -2.25,-2.25 z m -6.91003,-4.75527 c -3.67831,-3.83933 -4.48813,-7.2764 -0.92594,-3.9299 1.33271,1.25201 2.19889,2.50059 1.92486,2.77462 -0.27403,0.27404 0.24749,1.32226 1.15893,2.3294 2.75384,3.04295 0.93336,2.05241 -2.15785,-1.17412 z m 0.50505,-1.37229 c 0,-0.20765 -0.7875,-0.99515 -1.75,-1.75 -1.58606,-1.24387 -1.62143,-1.2085 -0.37756,0.37756 1.30637,1.66574 2.12756,2.19548 2.12756,1.37244 z m 33.38485,-10.84896 c -1.58667,-1.22458 -3.33485,-2.7358 -3.88485,-3.35827 -3.44739,-3.90163 -14.78524,-12.36716 -15.79804,-11.79578 -0.66108,0.37296 -2.12364,1.39865 -3.25014,2.27933 -1.12649,0.88068 -0.83142,0.40799 0.65571,-1.05042 l 2.70388,-2.65165 -2.20395,-1.91631 c -2.18415,-1.89909 -2.22025,-1.8947 -4.01831,0.48905 -1.08658,1.44051 -2.17847,2.04125 -2.72207,1.49765 -1.63263,-1.63262 -3.79627,-16.62265 -2.60786,-18.06766 2.39609,-2.91347 17.90541,-13.35022 19.13669,-12.87774 0.72909,0.27978 5.08863,5.83435 9.68786,12.3435 4.59924,6.50915 8.97662,12.46918 9.72751,13.24451 0.75089,0.77533 2.43229,3.10001 3.73646,5.16594 1.30417,2.06594 2.83945,4.04563 3.41174,4.39932 2.41065,1.48987 0.68649,5.19164 -4.55289,9.77505 -2.9864,2.6125 -5.81391,4.75 -6.28335,4.75 -0.46944,0 -2.15171,-1.00193 -3.73839,-2.22652 z m 6.61515,-2.77348 c 0,-0.55 -0.45,-1 -1,-1 -0.55,0 -1,0.45 -1,1 0,0.55 0.45,1 1,1 0.55,0 1,-0.45 1,-1 z m -7.14324,-3.10969 c -2.11015,-1.33705 -3.07508,-1.0412 -1.64619,0.50473 0.70918,0.76727 1.67497,1.16102 2.14619,0.875 0.47122,-0.28603 0.24622,-0.9069 -0.5,-1.37973 z m 1.14324,-6.44933 c 0,-1.46997 -2.13489,-1.97276 -3.32466,-0.78299 -0.90433,0.90433 1.33681,3.45253 2.43796,2.77198 0.48768,-0.3014 0.8867,-1.19645 0.8867,-1.98899 z m -5.17668,-4.77385 c 0.19137,-0.98676 -0.31876,-1.66713 -1.25,-1.66713 -0.92764,0 -1.57332,0.85499 -1.57332,2.08333 0,2.43704 2.33677,2.09257 2.82332,-0.4162 z m 11.42668,0.13842 c -1.20695,-1.20694 -2.54374,-1.84515 -2.97065,-1.41824 -0.42692,0.42692 0.0966,1.41442 1.16335,2.19445 3.01266,2.20291 4.2535,1.66999 1.8073,-0.77621 z m -18.50633,-1.32983 c 1.78403,-1.08665 3.24653,-2.48574 3.25,-3.10909 0.01,-1.7583 3.79531,-2.32582 5.092,-0.7634 0.63757,0.76822 1.55412,1.39677 2.03677,1.39677 1.48099,0 0.97182,-2.74985 -0.62244,-3.36163 -0.825,-0.31658 -1.5,-1.26473 -1.5,-2.10699 0,-0.84226 0.675,-1.53138 1.5,-1.53138 2.06364,0 1.89058,-3.59495 -0.25,-5.1933 -0.9625,-0.71869 -3.4923,-3.8942 -5.62178,-7.0567 -2.12948,-3.1625 -4.47447,-5.75 -5.21109,-5.75 -0.73662,0 -3.82546,2.025 -6.86409,4.5 -3.03864,2.475 -5.9114,4.5 -6.38393,4.5 -0.47253,0 -1.62276,0.84379 -2.55608,1.87509 -1.47225,1.62682 -1.55997,2.71921 -0.66254,8.25 0.56892,3.5062 1.0378,6.76751 1.04195,7.24735 0.004,0.47985 0.69272,0.30381 1.53013,-0.39118 0.92444,-0.76721 1.29155,-2.09207 0.9345,-3.37245 -0.33609,-1.20517 -0.23864,-1.62411 0.22742,-0.97767 1.4143,1.9617 9.56547,8.45711 10.20443,8.1316 0.33609,-0.17121 2.07073,-1.20037 3.85475,-2.28702 z m -10.74367,-7.51091 c 0,-0.56935 0.72675,-2.14435 1.61501,-3.5 1.74588,-2.66455 0.70846,-3.24348 -2.62007,-1.46211 -2.44333,1.30763 -3.65711,-0.49364 -1.83103,-2.7173 1.52983,-1.86292 9.79095,-7.2854 11.09925,-7.2854 1.20963,0 -0.15767,4.10264 -2.13144,6.39551 -1.55175,1.8026 -1.52467,1.83936 0.55253,0.75 3.01515,-1.58126 3.31575,-1.47457 3.31575,1.17685 0,1.61478 -1.24609,3.13821 -4.08975,5 -4.38008,2.86773 -5.91025,3.29296 -5.91025,1.64245 z m 7,-4.61501 c 0,-0.72338 -3.85398,1.60491 -4.56743,2.7593 -0.37335,0.60409 0.50158,0.32492 1.9443,-0.62039 1.44272,-0.9453 2.62313,-1.90781 2.62313,-2.13891 z m -3.10834,-4.40808 c 1.31541,-1.09545 2.13238,-2.25101 1.81548,-2.56791 -0.3169,-0.3169 -1.83855,0.59435 -3.38145,2.025 -3.2679,3.03017 -1.96368,3.48234 1.56597,0.54291 z m -5.93346,25.80828 c 4.14397,-4.41519 5.0418,-5.2091 5.0418,-4.45821 0,0.16048 -2.1375,2.29798 -4.75,4.75 l -4.75,4.45821 z m 37.01728,-13.4824 c -3.56152,-4.25283 -8.89401,-10.21533 -11.84998,-13.25 -9.34182,-9.59056 -17.26512,-19.9483 -16.40817,-21.44957 0.43047,-0.75413 5.05767,-6.0007 10.28267,-11.65907 9.24589,-10.01275 10.34303,-12.04898 8.61262,-15.98459 -0.49801,-1.13266 1.86132,-4.0846 8.39208,-10.5 4.99666,-4.9084 9.67112,-9.05666 10.38769,-9.21835 2.01667,-0.45505 32.60761,35.66767 32.60761,38.50407 0,1.06236 -7.64146,6.90386 -12.86058,9.83124 -7.98667,4.47969 -9.13942,5.5799 -9.13942,8.72287 0,2.80625 -0.42546,2.4408 -5.66372,-4.86501 -7.08561,-9.88229 -12.57559,-16.49322 -13.18805,-15.88076 -0.25812,0.25812 0.19652,1.25956 1.01031,2.22544 0.81378,0.96587 3.42083,5.13113 5.79343,9.25613 2.3726,4.125 5.75574,9.75 7.51809,12.5 1.76235,2.75 3.48843,5.7875 3.83572,6.75 0.3473,0.9625 1.04098,1.75 1.54151,1.75 1.31733,0 3.4808,5.7026 2.81839,7.42884 -0.58066,1.51317 -15.246,13.57116 -16.50571,13.57116 -0.38995,0 -3.62297,-3.47958 -7.18449,-7.7324 z m 13.75368,0.12823 c -0.33229,-0.33229 -1.19479,-0.36782 -1.91666,-0.0789 -0.79774,0.31923 -0.56078,0.55619 0.60416,0.60417 1.05417,0.0434 1.64479,-0.19293 1.3125,-0.52522 z m -12.72916,-7.39583 c 0,-0.55 -0.5456,-1 -1.21244,-1 -0.66684,0 -2.2015,-1.2375 -3.41036,-2.75 -1.20886,-1.5125 -2.54296,-2.40781 -2.96467,-1.98957 -0.4217,0.41823 0.52216,2.10573 2.09746,3.75 2.8352,2.95931 5.49001,3.92141 5.49001,1.98957 z m -4.94992,-10.75 c 2.24606,-2.0625 5.25302,-4.9875 6.68213,-6.5 1.42911,-1.5125 3.199,-2.75 3.93308,-2.75 3.29151,0 0.49753,-6.9126 -7.37225,-18.23975 -3.27773,-4.7177 -4.02753,-6.76025 -2.48161,-6.76025 0.95634,0 2.97126,1.8768 9.5069,8.85523 5.12698,5.47434 7.25154,6.51563 6.13845,3.0086 -0.60337,-1.90106 -0.39067,-2.06406 1.93261,-1.48095 1.43583,0.36037 2.61061,0.26889 2.61061,-0.2033 0,-1.0951 10.24909,-12.19843 11.25,-12.18766 0.4125,0.004 0.75,0.68308 0.75,1.50808 0,1.48361 2.10487,2.06179 3.26877,0.89789 0.54899,-0.54899 -4.68771,-8.78515 -7.88281,-12.39789 -0.72963,-0.825 -4.06102,-4.7625 -7.40309,-8.75 -3.34208,-3.9875 -6.64929,-7.25 -7.34935,-7.25 -0.70007,0 -2.20105,1.0125 -3.33552,2.25 -1.13447,1.2375 -4.80952,4.90889 -8.16678,8.15865 -5.81675,5.63048 -6.0757,6.08638 -5.50047,9.68369 0.63934,3.99818 0.58824,4.07333 -11.13075,16.36932 -7.10708,7.457 -9.81484,10.93339 -8.78372,11.2771 0.60643,0.20214 3.94673,3.83111 7.42288,8.06438 9.76598,11.89303 9.91452,11.95321 15.91092,6.44686 z m -13.83152,-13.73945 c -1.99386,-1.99128 -2.13118,-2.60823 -1.08948,-4.89452 0.65557,-1.43882 1.48486,-2.61603 1.84287,-2.61603 0.35801,0 1.52328,-0.81022 2.58948,-1.80049 2.44158,-2.26768 5.22241,-3.35828 5.87415,-2.30374 0.2748,0.44463 -0.33018,2.43604 -1.3444,4.42537 -1.76654,3.46496 -1.76794,3.57623 -0.0333,2.6479 4.29647,-2.2994 5.29302,0.0439 1.86958,4.3961 -2.57055,3.26792 -6.52302,3.32712 -9.70886,0.14541 z m 4.55227,-1.32305 c 0.59995,-1.79986 -1.467,-1.42166 -2.16453,0.39606 -0.37372,0.97391 -0.15023,1.43108 0.58052,1.1875 0.65349,-0.21784 1.3663,-0.93044 1.58401,-1.58356 z m 2.64277,-6.82295 c 0.83599,-2.17856 -0.8594,-1.58402 -3.48929,1.22361 l -2.42431,2.58817 2.69498,-1.22362 c 1.48225,-0.67299 2.93062,-1.83766 3.21862,-2.58816 z m 15.77354,-18.61455 c 0.26403,-1.89888 -0.11629,-2.22062 -2.43714,-2.06174 -1.68773,0.11554 -2.75,-0.31445 -2.75,-1.11316 0,-1.21259 9.25808,-10.5751 10.45715,-10.5751 1.62113,0 0.17159,5.09853 -2.09352,7.36363 -2.98851,2.98851 -1.59079,3.47434 2.70131,0.93893 1.58044,-0.93358 3.14832,-1.42263 3.48419,-1.08676 1.01607,1.01606 -2.65976,5.79004 -5.64797,7.33531 -3.7188,1.92306 -4.08192,1.84474 -3.71402,-0.80111 z m 2.56286,-7.64205 c 2.48411,-2.96149 1.17959,-3.41468 -1.75,-0.60795 -1.65,1.5808 -3,3.29509 -3,3.80953 0,1.02504 2.77173,-0.84316 4.75,-3.20158 z m -5.75,51.05871 c 0,-1.40724 -1.12573,-2.05565 -2.59203,-1.49298 -0.76807,0.29474 -1.14751,0.93873 -0.84321,1.4311 0.69796,1.12933 3.43524,1.17864 3.43524,0.0619 z m 15.45729,-18.23576 c -0.31643,-0.512 -1.27887,-0.9309 -2.13876,-0.9309 -1.27119,0 -1.33244,0.27832 -0.32767,1.48899 1.29114,1.55573 3.46837,1.06308 2.46643,-0.55809 z m 3.54271,0.51008 c 0,-0.85746 -0.45,-1.2809 -1,-0.94098 -0.55,0.33992 -1,1.04147 -1,1.55901 0,0.51754 0.45,0.94099 1,0.94099 0.55,0 1,-0.70156 1,-1.55902 z m 0.5,-8.44098 c -0.48383,-0.78285 -1.05907,-0.84093 -1.72574,-0.17427 -0.55,0.55 -0.67342,1.52842 -0.27426,2.17427 0.48382,0.78284 1.05906,0.84093 1.72573,0.17426 0.55,-0.55 0.67342,-1.52842 0.27427,-2.17426 z m 6.91821,-1.60699 c 2.41214,-0.92563 1.88529,-2.39301 -0.8592,-2.39301 -2.72326,0 -4.26093,1.55121 -2.31524,2.33564 0.69092,0.27855 1.33192,0.54199 1.42444,0.58541 0.0925,0.0434 0.88002,-0.1942 1.75,-0.52804 z m 9.35262,-1.20551 c 0.21771,-0.65313 -0.31667,-1.1875 -1.1875,-1.1875 -0.87083,0 -1.58333,0.7125 -1.58333,1.58333 0,1.76593 2.15275,1.45839 2.77083,-0.39583 z m -2.77083,-4.1875 c 0,-0.55 -0.19845,-1 -0.44099,-1 -0.24254,0 -0.7191,0.45 -1.05901,1 -0.33992,0.55 -0.14148,1 0.44098,1 0.58246,0 1.05902,-0.45 1.05902,-1 z m 8.24313,-0.75908 c -1.24128,-1.50751 -7.19934,-7.91592 -13.24014,-14.24092 -6.0408,-6.325 -10.98771,-12.18268 -10.99313,-13.01706 -0.005,-0.83438 4.93049,-6.44209 10.9687,-12.46157 10.79271,-10.75925 11.00937,-10.91131 12.79892,-8.98295 1.0012,1.07887 7.59653,9.57758 14.65629,18.88602 9.45045,12.46064 12.59659,17.30386 11.92853,18.36296 -0.49906,0.79118 -2.51749,2.40018 -4.4854,3.57555 -1.96791,1.17538 -6.43474,4.04955 -9.92629,6.38705 -3.49156,2.3375 -7.04631,4.24591 -7.89945,4.24092 -0.85314,-0.005 -2.56676,-1.24249 -3.80803,-2.75 z m 1.34576,-6.31765 c -3.30763,-3.93089 -3.25482,-4.79517 0.37025,-6.05887 1.62752,-0.56736 3.23285,-1.89395 3.56738,-2.94798 0.33454,-1.05403 1.18318,-1.91642 1.88588,-1.91642 0.70269,0 2.09211,-0.9 3.0876,-2 2.34491,-2.59111 4.01639,-2.52853 5.94329,0.2225 1.86749,2.66622 1.89028,2.43934 0.27339,-2.7225 -2.08444,-6.6545 -16.27692,-25.5 -19.20396,-25.5 -1.4803,0 -19.51272,18.47123 -19.51272,19.98755 0,1.94759 15.30681,18.01245 17.1625,18.01245 0.95596,0 2.09798,0.58966 2.53781,1.31035 0.7388,1.2106 5.27236,4.68965 6.11109,4.68965 0.20151,0 -0.79862,-1.38453 -2.22251,-3.07673 z m -10.9787,-18.74497 c -0.27931,-0.45194 0.11745,-2.02694 0.88168,-3.5 0.93675,-1.80558 1.02619,-2.6783 0.27451,-2.6783 -0.61326,0 -0.13657,-1.04151 1.0593,-2.31445 3.28689,-3.49874 2.60525,-4.47259 -0.82815,-1.18319 -2.13395,2.04445 -2.64828,3.09546 -1.77803,3.6333 1.63857,1.01269 -1.62344,2.30704 -3.75388,1.48952 -1.1599,-0.4451 -0.24469,-1.80875 3.75,-5.58744 2.90641,-2.74925 5.636,-5.00744 6.06576,-5.01819 1.39239,-0.0348 2.01711,3.08195 0.8514,4.24766 -1.69886,1.69886 -1.37075,2.73279 0.86722,2.73279 3.18368,0 2.40856,3.45099 -1.43328,6.38131 -3.57608,2.7276 -5.09767,3.18664 -5.95653,1.79699 z m 6.77136,-4.73024 c 0.3415,-0.88993 0.17385,-1.29132 -0.39301,-0.94098 -0.5437,0.33602 -0.98854,1.03439 -0.98854,1.55193 0,1.43844 0.71676,1.12147 1.38155,-0.61095 z m 12.61845,25.11095 c 0,-0.24254 -0.45,-0.71909 -1,-1.05901 -0.55,-0.33992 -1,-0.14148 -1,0.44098 0,0.58246 0.45,1.05902 1,1.05902 0.55,0 1,-0.19845 1,-0.44099 z m 4.75,-2.80901 c -0.22917,-0.6875 -1.01667,-1.25 -1.75,-1.25 -0.73334,0 -1.52084,0.5625 -1.75,1.25 -0.24787,0.74359 0.46111,1.25 1.75,1.25 1.28888,0 1.99786,-0.50641 1.75,-1.25 z m -5.00014,-5.33347 c -0.95296,-0.95296 -2.86349,0.5906 -2.15331,1.7397 0.42212,0.683 0.98147,0.66575 1.69965,-0.0524 0.58875,-0.58876 0.7929,-1.34803 0.45366,-1.68727 z m 4.75014,-1.41653 c 0.34463,-0.55763 -0.40342,-0.99323 -1.69099,-0.98469 -1.85763,0.0123 -2.01579,0.20481 -0.80901,0.98469 1.86073,1.2025 1.75681,1.2025 2.5,0 z m 3.5,-25.5 c 1.29174,-1.375 2.57362,-2.5 2.84862,-2.5 0.275,0 -0.55688,1.125 -1.84862,2.5 -1.29175,1.375 -2.57363,2.5 -2.84863,2.5 -0.275,0 0.55688,-1.125 1.84863,-2.5 z m 24.33713,-3.75 c -1.17839,-1.88628 -1.2916,-3.8399 -0.18282,-3.15463 0.53831,0.33269 0.72771,0.85593 0.42089,1.16275 -0.30682,0.30682 -0.0567,1.16176 0.55592,1.89987 0.61257,0.7381 0.86022,1.34201 0.55034,1.34201 -0.30989,0 -0.91483,-0.5625 -1.34433,-1.25 z m 3.16287,-3.75 c 0.99548,-1.1 2.03497,-2 2.30997,-2 0.275,0 -0.31449,0.9 -1.30997,2 -0.99549,1.1 -2.03498,2 -2.30998,2 -0.275,0 0.31449,-0.9 1.30998,-2 z m -55.5,-0.31291 c 0,-0.1721 1.4625,-1.6346 3.25,-3.25 l 3.25,-2.93709 -2.9371,3.25 c -2.73778,3.02945 -3.5629,3.70965 -3.5629,2.93709 z m 47.07388,-1.09807 c -0.8143,-0.98117 -0.84663,-1.61144 -0.10613,-2.06909 0.58568,-0.36197 0.76038,-1.18954 0.38823,-1.83903 -0.37215,-0.6495 -0.28293,-0.82184 0.19827,-0.38299 0.74795,0.68213 1.5524,5.70209 0.91376,5.70209 -0.12272,0 -0.75008,-0.63494 -1.39413,-1.41098 z m -3.47088,-3.42236 c -0.28326,-0.45833 0.12038,-0.83333 0.897,-0.83333 0.77661,0 1.18026,0.375 0.89699,0.83333 -0.28327,0.45834 -0.68691,0.83334 -0.89699,0.83334 -0.21009,0 -0.61373,-0.375 -0.897,-0.83334 z m 5.65115,-4.75 c 1.6868,-2.00333 5.24248,-3.02925 4.10172,-1.18347 -0.30588,0.49493 -0.81207,0.64395 -1.12486,0.33116 -0.31279,-0.3128 -1.50523,0.21976 -2.64986,1.18346 -2.05138,1.72712 -2.05606,1.72239 -0.327,-0.33115 z m 17.74585,-2.79422 c 0,-0.20765 0.7875,-0.99515 1.75,-1.75 1.58605,-1.24387 1.62142,-1.2085 0.37755,0.37756 -1.30637,1.66574 -2.12755,2.19548 -2.12755,1.37244 z m -3.25087,-6.87244 c 0.54671,-0.6875 0.85799,-2.09632 0.69174,-3.1307 -0.22263,-1.38518 -0.008,-1.58638 0.81477,-0.76366 0.82273,0.82273 1.66078,0.66517 3.1807,-0.59798 1.13501,-0.94326 0.51288,-0.0371 -1.38251,2.01365 -3.26605,3.5338 -5.44099,5.16511 -3.3047,2.47869 z m 18.25087,-13.12756 c 0,-0.20765 0.7875,-0.99515 1.75,-1.75 1.58605,-1.24387 1.62142,-1.2085 0.37755,0.37756 -1.30637,1.66574 -2.12755,2.19548 -2.12755,1.37244 z m -3,-0.89747 c 0,-0.15127 3.4875,-3.63877 7.75,-7.75 l 7.75,-7.47497 -7.47498,7.75 c -6.94259,7.19803 -8.02502,8.20627 -8.02502,7.47497 z m 8.5,-4.72497 c 0.99548,-1.1 2.03497,-2 2.30997,-2 0.275,0 -0.31449,0.9 -1.30997,2 -0.99549,1.1 -2.03498,2 -2.30998,2 -0.275,0 0.31449,-0.9 1.30998,-2 z m 10.5,-10.5 c 1.29174,-1.375 2.57362,-2.5 2.84862,-2.5 0.275,0 -0.55688,1.125 -1.84862,2.5 -1.29175,1.375 -2.57363,2.5 -2.84863,2.5 -0.275,0 0.55688,-1.125 1.84863,-2.5 z m 3,-7 c 1.86578,-1.925 3.61733,-3.5 3.89233,-3.5 0.275,0 -1.02655,1.575 -2.89233,3.5 -1.86579,1.925 -3.61734,3.5 -3.89234,3.5 -0.275,0 1.02655,-1.575 2.89234,-3.5 z m 5,-1 c 1.86578,-1.925 3.61733,-3.5 3.89233,-3.5 0.275,0 -1.02655,1.575 -2.89233,3.5 -1.86579,1.925 -3.61734,3.5 -3.89234,3.5 -0.275,0 1.02655,-1.575 2.89234,-3.5 z m 1.5,-5.5 c 0.99548,-1.1 2.03497,-2 2.30997,-2 0.275,0 -0.31449,0.9 -1.30997,2 -0.99549,1.1 -2.03498,2 -2.30998,2 -0.275,0 0.31449,-0.9 1.30998,-2 z m 10.5,-6.5 c 3.54322,-3.575 6.66722,-6.5 6.94222,-6.5 0.275,0 -2.399,2.925 -5.94222,6.5 -3.54323,3.575 -6.66723,6.5 -6.94223,6.5 -0.275,0 2.399,-2.925 5.94223,-6.5 z"
       id="path16" />
    <path
       style="fill:#250809"
       d="m 456.52595,726.8601 c 0,-1.33917 1.35,-15.84302 3,-32.23078 1.65,-16.38776 3,-31.3606 3,-33.27298 0,-2.57429 -0.87087,-4.39673 -3.35419,-7.01922 -2.9404,-3.10519 -6.40413,-10.10434 -15.81485,-31.95703 -1.4932,-3.46737 -2.16196,-4.15336 -3.1161,-3.19637 -0.66817,0.67018 -1.21486,2.64655 -1.21486,4.39194 0,5.7677 -2.69881,4.41395 -14.39516,-7.22074 -6.10767,-6.07547 -11.09795,-11.38688 -11.08953,-11.80313 0.0438,-2.16403 1.94913,-3.48257 4.21181,-2.91468 1.86441,0.46794 3.09869,-0.0728 5.2198,-2.28675 l 2.778,-2.89961 -1.31461,-12.22691 -1.31461,-12.22691 9.45215,-8.89257 c 8.182,-7.69761 9.21699,-9.02803 7.70215,-9.90067 -0.9625,-0.55446 -1.75,-1.54149 -1.75,-2.1934 0,-0.65191 5.26849,-6.46755 11.70777,-12.92365 l 11.70777,-11.73835 -2.20777,-2.98618 c -1.21428,-1.64239 -2.20777,-3.40859 -2.20777,-3.92489 0,-1.16031 22.4097,-21.14226 23.71098,-21.14226 0.51721,0 1.99727,1.125 3.28902,2.5 1.29174,1.375 2.63476,2.5 2.98447,2.5 0.34972,0 1.95878,-1.24971 3.57569,-2.77714 12.64214,-11.94248 21.66997,-19.47609 22.25652,-18.5728 1.72873,2.66224 11.59553,14.34899 12.10792,14.34125 0.31647,-0.005 2.8254,-2.2358 5.5754,-4.95782 2.75,-2.72202 5.9,-4.96979 7,-4.99505 1.1,-0.0252 3.50141,-0.96129 5.33647,-2.08007 l 3.33647,-2.03415 3.68124,3.28789 c 2.02468,1.80834 4.72141,4.5271 5.99273,6.04169 l 2.3115,2.7538 -2.07921,3.36423 c -1.14356,1.85033 -2.0792,4.22521 -2.0792,5.2775 0,1.0523 -2.7,4.5851 -6,7.85067 -6.3154,6.24949 -6.91298,7.4974 -4.53525,9.47074 1.17617,0.97614 2.04391,0.80324 4.40437,-0.87755 3.93074,-2.79894 4.37631,-2.69718 7.25479,1.65681 1.36355,2.0625 9.31848,13.96793 17.67763,26.45652 8.35915,12.48859 15.19846,23.22342 15.19846,23.85518 0,1.0575 -4.73809,10.27516 -17.95909,34.9383 -2.80093,5.225 -7.19547,13.63823 -9.76565,18.69607 l -4.67306,9.19607 1.24678,9.30393 c 0.68573,5.11716 1.89329,13.80393 2.68347,19.30393 0.79019,5.5 3.02829,21.7 4.97358,36 1.94528,14.3 3.7608,27.0125 4.03447,28.25 0.404,1.82676 0.0638,2.25 -1.80865,2.25 -1.67947,0 -2.348,-0.61149 -2.45989,-2.25 -0.15125,-2.21485 -0.70571,-5.41927 -5.75322,-33.25 -1.3965,-7.7 -3.06125,-16.925 -3.69944,-20.5 -0.63818,-3.575 -1.51847,-6.91237 -1.95619,-7.41637 -0.47906,-0.5516 -4.12942,-0.3978 -9.17034,0.38638 -4.60596,0.71651 -9.00859,1.08436 -9.78363,0.81744 -0.7802,-0.2687 2.16149,-2.23182 6.59086,-4.39835 13.58505,-6.64486 9.78797,-8.3763 -12,-5.4719 -15.62665,2.08307 -15.25652,0.91625 1.02699,-3.23752 8.21531,-2.09565 15.17005,-4.04463 15.45497,-4.33106 1.25427,-1.26092 -4.42839,-4.21479 -9.22582,-4.79563 -10.60278,-1.2837 -12.75291,-1.74921 -12.20138,-2.64161 0.3098,-0.50126 2.22421,-0.91529 4.25425,-0.92008 7.08056,-0.0167 14.07993,-1.25951 14.59079,-2.5908 0.29706,-0.77412 -1.13968,-2.50253 -3.42256,-4.11735 -2.164,-1.53074 -3.94415,-3.12065 -3.95589,-3.53315 -0.0118,-0.4125 2.19935,-0.75 4.91355,-0.75 2.71419,0 6.20169,-0.48496 7.75,-1.07768 l 2.8151,-1.07768 -2.25,-1.83261 c -3.06373,-2.49539 -2.87409,-2.8886 1.7497,-3.62798 3.48989,-0.55805 4.38857,-1.29248 7.05041,-5.76181 1.67789,-2.81724 5.04116,-8.27224 7.47393,-12.12224 2.43278,-3.85 4.70145,-7.54481 5.0415,-8.21069 0.34004,-0.66588 -1.33559,-3.28792 -3.72364,-5.82675 -2.38805,-2.53883 -4.4919,-5.03152 -4.67524,-5.53931 -0.54441,-1.50788 2.26926,-1.06031 7.28652,1.15906 5.80472,2.56771 6.37237,2.17177 11.98022,-8.35619 l 3.9334,-7.38441 -5.8256,-8.42086 c -3.20409,-4.63147 -8.31109,-12.02085 -11.3489,-16.42085 -3.0378,-4.4 -7.24881,-10.34329 -9.35779,-13.2073 -2.10898,-2.86402 -3.83451,-5.60677 -3.83451,-6.09502 0,-0.48824 -0.92299,-1.723 -2.05108,-2.74391 -2.00434,-1.8139 -2.15247,-1.80081 -6.5,0.57413 -3.1918,1.74359 -4.44892,3.05533 -4.44892,4.64219 0,1.21653 0.45,2.48999 1,2.82991 0.55,0.33992 1,1.1416 1,1.78152 0,0.63992 -0.70052,0.16336 -1.55671,-1.05902 -1.6836,-2.40367 -4.99649,-3.1065 -4.14158,-0.87863 0.36119,0.94123 -0.1487,1.21687 -1.70181,0.91998 -2.08781,-0.39911 -14.06646,6.5131 -15.78448,9.10834 -0.37651,0.56876 -0.5188,3.3106 -0.31618,6.09298 0.42867,5.88665 -0.87762,8.02574 -6.99924,11.46151 l -4,2.24501 4.82262,-4.56401 4.82263,-4.56401 -1.28881,-3.77183 c -0.70884,-2.07452 -1.39326,-3.93608 -1.52093,-4.13682 -0.27205,-0.42774 -11.74411,5.80292 -18.58551,10.0941 -2.6125,1.63865 -4.74832,3.71996 -4.74627,4.62512 0.007,3.29776 3.88567,7.9138 8.54297,10.16836 5.78681,2.80135 21.90859,3.97233 27.8218,2.02079 3.72312,-1.22874 9.85276,-6.3124 10.90409,-9.04339 0.44485,-1.15558 1.36836,-0.675 4.02195,2.09294 1.89448,1.97612 4.17822,3.8745 5.07498,4.21862 2.93981,1.12811 1.80279,2.59824 -1.31742,1.70338 -3.66112,-1.05 -5.61417,1.46013 -7.38001,9.48506 -0.27571,1.25298 -0.48342,0.81664 -0.55609,-1.16822 -0.24293,-6.6348 -2.60992,-8.2793 -5.52129,-3.83599 -1.32514,2.02242 -1.96403,2.29051 -3.3684,1.41347 -1.34193,-0.83805 -3.41265,-0.41583 -9.17486,1.87077 -7.14571,2.83561 -7.66008,3.26674 -12.92889,10.83653 -5.46198,7.84732 -5.48629,7.91551 -5.30664,14.88344 0.30646,11.88594 1.39052,19.81435 3.32708,24.3329 2.37556,5.54287 2.39,5.49408 -1.09334,3.69278 -3.87306,-2.00284 -3.72474,-2.07124 -4.50286,2.0765 -0.37167,1.9812 -0.88322,3.39474 -1.13677,3.14119 -0.25355,-0.25355 -1.13776,-4.46203 -1.96492,-9.35219 -2.03463,-12.02866 -6.69309,-22.83704 -10.52739,-24.42526 -3.96643,-1.64295 -5.30795,-0.86329 -7.20294,4.18622 -0.89743,2.39132 -2.12622,5.68261 -2.73065,7.31397 -0.87297,2.35614 -1.28966,2.66461 -2.02624,1.5 -0.51,-0.80636 -0.94105,-2.36611 -0.95789,-3.46611 -0.0169,-1.1 -0.42618,-2.62462 -0.90964,-3.38803 -1.20534,-1.90332 -9.49526,4.03711 -11.12521,7.97215 -0.64918,1.56726 -1.80691,3.36959 -2.57274,4.00517 -1.16091,0.96346 -1.39241,0.24977 -1.39241,-4.29253 0,-4.4019 -0.44446,-5.86568 -2.31446,-7.62245 -1.27294,-1.19587 -2.75662,-2.17431 -3.29705,-2.17431 -1.17299,0 -8.38849,7.22886 -8.38849,8.40402 0,0.45084 3.55034,8.09714 7.88965,16.99179 6.01055,12.32031 8.86932,17.05715 12.00288,19.88814 2.26228,2.04382 4.86748,3.71605 5.78935,3.71605 0.92187,0 3.05807,0.43439 4.74712,0.96531 1.68905,0.53093 4.421,1.28663 6.071,1.67935 2.60099,0.61906 2.08003,0.85643 -3.91684,1.78468 -7.2126,1.11644 -9.48522,2.87646 -5.12672,3.97037 3.27628,0.82229 3.20283,1.71813 -0.30442,3.7129 -3.28028,1.86568 -3.18897,1.19916 -5.29339,38.63739 l -1.25068,22.25 h -4.30398 c -3.89353,0 -4.30397,-0.2322 -4.30397,-2.43486 z m -24.50434,-115.56955 -4.92916,-5.0044 6.21675,-6.2725 c 5.64083,-5.69143 7.52966,-8.71869 5.43993,-8.71869 -0.42725,0 -3.90103,3.14833 -7.71951,6.99629 l -6.94268,6.99629 5.43534,5.50371 c 2.98944,3.02704 5.8838,5.50371 6.43191,5.50371 0.54812,0 -1.22155,-2.25199 -3.93258,-5.00441 z m 36.91093,-6.74559 c 5.23938,-4.58341 6.96354,-8.28518 4.55289,-9.77505 -0.57229,-0.35369 -2.10757,-2.33338 -3.41174,-4.39932 -1.30417,-2.06593 -2.98557,-4.39061 -3.73646,-5.16594 -0.75089,-0.77533 -5.12827,-6.73536 -9.72751,-13.24451 -4.59923,-6.50915 -8.95877,-12.06372 -9.68786,-12.3435 -1.23128,-0.47248 -16.7406,9.96427 -19.13669,12.87774 -1.18177,1.43694 0.971,16.4308 2.59179,18.05159 0.52217,0.52217 1.73634,-0.18225 2.9302,-1.7 1.12122,-1.4254 2.19163,-2.23606 2.37868,-1.80146 0.18706,0.43459 3.71511,3.54001 7.84011,6.90092 4.125,3.36091 8.65778,7.19411 10.07284,8.51821 3.94958,3.69569 8.10378,6.83132 9.0504,6.83132 0.46944,0 3.29695,-2.1375 6.28335,-4.75 z m -29.97402,-25.1409 c 0.71345,-1.15439 4.56743,-3.48268 4.56743,-2.7593 0,0.2311 -1.18041,1.19361 -2.62313,2.13891 -1.44272,0.94531 -2.31765,1.22448 -1.9443,0.62039 z m -0.10688,-7.71029 c 1.5429,-1.43065 3.06455,-2.3419 3.38145,-2.025 0.66621,0.66621 -3.72075,4.5433 -5.19693,4.59292 -0.54438,0.0183 0.27259,-1.13727 1.81548,-2.56792 z m 48.16059,14.54799 c 4.18952,-3.32926 7.87025,-6.71234 8.1794,-7.51796 0.66241,-1.72624 -1.50106,-7.42884 -2.81839,-7.42884 -0.50053,0 -1.19421,-0.7875 -1.54151,-1.75 -0.34729,-0.9625 -2.07337,-4 -3.83572,-6.75 -1.76235,-2.75 -5.14549,-8.375 -7.51809,-12.5 -2.3726,-4.125 -4.97965,-8.29026 -5.79343,-9.25613 -0.81379,-0.96588 -1.26843,-1.96732 -1.01031,-2.22544 0.61246,-0.61246 6.10244,5.99847 13.18805,15.88076 5.23826,7.30581 5.66372,7.67126 5.66372,4.86501 0,-3.14297 1.15275,-4.24318 9.13942,-8.72287 5.21912,-2.92738 12.86058,-8.76888 12.86058,-9.83124 0,-2.8364 -30.59094,-38.95912 -32.60761,-38.50407 -0.71657,0.16169 -5.39103,4.30995 -10.38769,9.21835 -6.53076,6.4154 -8.89009,9.36734 -8.39208,10.5 1.73041,3.93561 0.63327,5.97184 -8.61262,15.98459 -5.225,5.65837 -9.8522,10.90494 -10.28267,11.65907 -0.85695,1.50127 7.06635,11.85901 16.40817,21.44957 2.95597,3.03467 8.28846,8.99717 11.84998,13.25 3.56152,4.25282 6.79454,7.7324 7.18449,7.7324 0.38995,0 4.13679,-2.72394 8.32631,-6.0532 z m -29.56197,-40.35864 c 2.62989,-2.80763 4.32528,-3.40217 3.48929,-1.22361 -0.288,0.7505 -1.73637,1.91517 -3.21862,2.58816 l -2.69498,1.22362 z m 17.07569,-24.27863 c 0,-0.51444 1.35,-2.22873 3,-3.80953 2.92959,-2.80673 4.23411,-2.35354 1.75,0.60795 -1.97827,2.35842 -4.75,4.22662 -4.75,3.20158 z m 51.95061,12.44047 c 3.49155,-2.3375 7.95838,-5.21167 9.92629,-6.38705 1.96791,-1.17537 3.98634,-2.78437 4.4854,-3.57555 0.66806,-1.0591 -2.47808,-5.90232 -11.92853,-18.36296 -7.05976,-9.30844 -13.65509,-17.80715 -14.65629,-18.88602 -1.78955,-1.92836 -2.00621,-1.7763 -12.79892,8.98295 -6.03821,6.01948 -10.97413,11.62719 -10.9687,12.46157 0.005,0.83438 4.95233,6.69206 10.99313,13.01706 6.0408,6.325 11.99886,12.73341 13.24014,14.24092 1.24127,1.50751 2.95489,2.74501 3.80803,2.75 0.85314,0.005 4.40789,-1.90342 7.89945,-4.24092 z m -15.95061,-27.69099 c 0,-0.51754 0.44484,-1.21591 0.98854,-1.55193 0.56686,-0.35034 0.73451,0.051 0.39301,0.94098 -0.66479,1.73242 -1.38155,2.04939 -1.38155,0.61095 z m -4.51,-5.04858 c 1.57531,-1.64427 3.08627,-2.76749 3.3577,-2.49606 0.66004,0.66003 -3.92231,5.48563 -5.20911,5.48563 -0.55703,0 0.27611,-1.34531 1.85141,-2.98957 z m 30.05705,-5.06061 c 2.17412,-2.2276 5.96718,-5.23119 8.42902,-6.67465 4.93337,-2.89259 4.15126,-4.22311 -1.133,-1.92745 -4.19226,1.82126 -12.84307,9.40812 -12.84307,11.26351 0,2.27479 1.37166,1.61668 5.54705,-2.66141 z m -40.22394,217.74074 c -0.45271,-0.65481 -0.59811,-7.49056 -0.32311,-15.19056 0.56814,-15.90792 1.57259,-14.93738 3.05294,2.94988 0.50298,6.07756 0.92183,11.33947 0.93078,11.69313 0.0323,1.27761 -2.85706,1.7098 -3.66061,0.54755 z m 7.21572,-1.62772 c -1.26167,-2.04143 -5.28691,-47.6481 -4.29313,-48.64188 1.20026,-1.20026 3.59266,1.02087 4.16114,3.86324 0.86862,4.34312 2.05546,45.7158 1.31142,45.7158 -0.33012,0 -0.86087,-0.42172 -1.17943,-0.93716 z m 9.03076,-2.24946 c -0.74326,-2.34498 -1.75687,-16.33149 -1.13886,-15.71475 0.81403,0.81236 3.56927,11.5354 3.56927,13.89114 0,2.28385 -1.84561,3.66867 -2.43041,1.82361 z M 392.11107,655.38138 c -2.54855,-2.58746 -4.2853,-5.08756 -3.85943,-5.55578 0.42587,-0.46821 0.28311,-0.57166 -0.31724,-0.22988 -0.60035,0.34178 -2.55446,-0.88792 -4.34245,-2.73267 -2.7885,-2.87699 -3.09051,-3.65378 -2.12327,-5.46109 1.34007,-2.50394 4.28836,-2.73305 6.51513,-0.50628 1.46764,1.46764 2.81966,0.39542 16.26106,-12.89584 8.06319,-7.97312 15.13751,-14.27337 15.72071,-14.00056 0.5832,0.2728 2.60094,2.27959 4.48387,4.45952 l 3.4235,3.96351 -14.33688,14.36251 c -14.27467,14.30018 -14.3299,14.37316 -12.72739,16.81889 1.34505,2.0528 1.39462,2.75023 0.30171,4.24488 -2.18599,2.98951 -4.15685,2.44919 -8.99932,-2.46721 z m -7.58512,-11.58642 c 0,-0.825 0.47655,-1.5 1.05901,-1.5 0.58246,0 0.79305,-0.43035 0.46798,-0.95633 -0.94302,-1.52584 -3.52699,-0.0142 -3.52699,2.06332 0,1.04115 0.45,1.89301 1,1.89301 0.55,0 1,-0.675 1,-1.5 z M 406.32426,630.997 c 7.84984,-7.86387 13.9406,-14.62979 13.53502,-15.03538 -0.73487,-0.73487 -29.33333,27.11977 -29.33333,28.5704 0,1.93324 2.47012,-0.18301 15.79831,-13.53502 z M 554.08539,486.78625 c -2.04617,-1.92979 -3.57161,-3.85851 -3.38988,-4.28604 0.56805,-1.33633 22.12983,-21.35531 26.23047,-24.35362 2.14503,-1.5684 4.62378,-2.85163 5.50834,-2.85163 0.88456,0 11.72579,-10.125 24.09163,-22.5 18.86541,-18.87941 25,-24.32679 25,-22.1995 0,0.16527 -10.30462,10.56958 -22.89914,23.12068 -16.44953,16.39282 -23.06303,23.63966 -23.48104,25.7297 -0.38053,1.90262 -5.1159,7.74401 -13.68338,16.87931 -7.20581,7.6834 -13.2264,13.96981 -13.37908,13.96981 -0.15268,0 -1.95175,-1.57892 -3.99792,-3.50871 z m 16.91683,-19.74227 c 3.28696,-3.09639 5.73613,-5.86995 5.44262,-6.16346 -0.86142,-0.86142 -24.92305,21.5987 -24.27029,22.65489 0.32675,0.52868 3.35198,-1.69891 6.72274,-4.9502 3.37076,-3.25129 8.81798,-8.44484 12.10493,-11.54123 z"
       id="path15" />
  </g>
</svg>
